<svg xmlns="http://www.w3.org/2000/svg" viewBox="0 0 382.3 382.3"><defs><linearGradient id="c" x1="191.15" y1="361.15" x2="191.15" y2="21.15" gradientUnits="userSpaceOnUse"><stop offset="0" stop-color="#662d91"/><stop offset="1" stop-color="#ae52ff"/></linearGradient></defs><g><rect x="21.15" y="21.15" width="340" height="340" rx="97.66" ry="97.66" style="fill:url(#c);"/></g><path d="m190.77,278.17c-16.92,0-30.98-2.38-42.18-7.13-11.2-4.75-19.58-10.96-25.14-18.61-5.56-7.65-8.5-15.75-8.82-24.29,0-1.45.48-2.66,1.45-3.63.97-.97,2.18-1.45,3.63-1.45h38.43c2.25,0,4.03.36,5.32,1.09,1.29.73,2.66,1.73,4.11,3.02,1.45,1.78,3.14,3.43,5.08,4.96,1.93,1.53,4.43,2.74,7.49,3.63,3.06.89,6.61,1.33,10.64,1.33,7.41,0,13.13-1,17.16-3.02,4.03-2.01,6.04-4.79,6.04-8.34,0-2.74-1.09-4.99-3.26-6.77-2.18-1.77-5.84-3.38-11-4.83-5.16-1.45-12.17-2.98-21.03-4.59-12.41-2.09-23.13-5.2-32.15-9.31-9.03-4.11-15.92-9.67-20.67-16.68-4.76-7.01-7.13-15.67-7.13-25.99s2.94-19.74,8.82-27.8c5.88-8.06,14.1-14.34,24.66-18.85,10.55-4.51,22.84-6.77,36.86-6.77,11.6,0,21.88,1.53,30.82,4.59,8.94,3.06,16.47,7.05,22.6,11.97,6.12,4.92,10.79,10.19,14.02,15.83,3.22,5.64,4.91,11.04,5.08,16.2,0,1.45-.52,2.7-1.57,3.75-1.05,1.05-2.22,1.57-3.5,1.57h-40.37c-1.93,0-3.55-.32-4.83-.97-1.29-.64-2.58-1.69-3.87-3.14-.81-2.25-2.82-4.27-6.04-6.04-3.23-1.77-7.33-2.66-12.33-2.66-5.48,0-9.67.93-12.57,2.78-2.9,1.85-4.35,4.56-4.35,8.1,0,2.42.88,4.51,2.66,6.29,1.77,1.78,4.91,3.35,9.43,4.71,4.51,1.37,10.79,2.86,18.85,4.47,15.31,2.26,27.68,5.48,37.11,9.67,9.43,4.19,16.32,9.67,20.67,16.44s6.53,15.23,6.53,25.38c0,11.44-3.3,21.27-9.91,29.49-6.61,8.22-15.67,14.54-27.19,18.98-11.52,4.43-24.7,6.65-39.52,6.65Z" style="fill:#fff;"/></svg>